<?xml version="1.0" encoding="utf-8"?>
<!-- Generator: Adobe Illustrator 21.0.2, SVG Export Plug-In . SVG Version: 6.00 Build 0)  -->
<svg version="1.1" id="Calque_2_xA0_Image_1_" xmlns="http://www.w3.org/2000/svg" xmlns:xlink="http://www.w3.org/1999/xlink"
	 x="0px" y="0px" viewBox="0 0 1098.5 1098.5" style="enable-background:new 0 0 1098.5 1098.5;" xml:space="preserve">
<style type="text/css">
	.st0{fill:#FFFFFF;}
</style>
<g>
	<g>
		<path class="st0" d="M14.8,477.3c212.3-122.9,424.6-245.8,637-368.7c83.8,144.8,167.7,289.6,251.5,434.5
			C690.9,666,478.6,788.9,266.3,911.8C182.4,767,98.6,622.2,14.8,477.3z M724.8,645.8C625.4,539.7,526.7,434.3,427,327.9
			c5.7,115.2,11.4,228.7,17,342.8C537.5,662.3,630.6,654.1,724.8,645.8z M161.5,730c92.8-19.6,184.4-39,276.6-58.4
			c-49.2-104.6-98.2-208.7-147.1-312.8c-0.4,0.1-0.9,0.3-1.3,0.4C247.1,482.3,204.5,605.5,161.5,730z M472.5,262.5
			c-0.1,0.3-0.1,0.6-0.2,0.9c85.3,70.3,170.6,140.6,256.5,211.4c8.8-62.7,17.4-124.3,26.1-186.1C660.4,280,566.4,271.3,472.5,262.5z
			 M439,331.8c-0.3,0.2-0.6,0.4-0.9,0.6C534.2,435,630.4,537.7,727.2,641c0.2-2.1,0.5-3.2,0.5-4.3c0.2-50.8,0.4-101.5,0.4-152.3
			c0-1.5-1.3-3.8-2.6-4.5c-39.7-20.7-79.5-41.2-119.3-61.8c-38.6-19.9-77.2-39.8-115.8-59.8C473.2,349.5,456.1,340.7,439,331.8z
			 M467.4,265.9c-0.2,1.1-0.5,1.7-0.4,2.3c3.6,25.2,7.1,50.4,10.9,75.6c0.2,1.5,1.7,3.2,3,3.9c32.5,16.9,65,33.7,97.5,50.5
			c32.1,16.6,64.2,33.1,96.3,49.7c10.1,5.2,20.3,10.4,30.4,15.7c0.2-0.3,0.5-0.7,0.7-1C626.4,397.1,547.1,331.7,467.4,265.9z
			 M302.7,370.3c-0.2,0.2-0.4,0.4-0.6,0.5c45.1,95.9,90.2,191.8,135.3,287.7c0.7-2.5,0.6-5,0.5-7.4c-0.5-10.8-1.1-21.6-1.7-32.4
			c-1.5-30.6-3-61.1-4.6-91.7c-0.1-1.7-0.8-3.6-1.9-4.9c-5.4-6.7-11-13.3-16.6-20c-29.3-35.1-58.7-70.2-88-105.3
			C317.8,388,310.2,379.1,302.7,370.3z M424.5,507.6c0.4-0.2,0.7-0.4,1.1-0.6C398.8,433.9,372,360.8,345,287
			c-1.5,2.7-2.7,4.7-3.8,6.7c-11.6,21.7-23.1,43.5-34.9,65.1c-1.9,3.4-1.7,5.6,0.8,8.7c26.4,31.3,52.5,62.8,78.8,94.2
			C398.8,477.1,411.6,492.3,424.5,507.6z M429.6,503.3c0.3,0,0.5-0.1,0.8-0.1c0-1.4,0-2.9,0-4.3c-2.3-45.8-4.7-91.7-6.7-137.5
			c-0.2-5.1-2-8.4-5.7-11.7c-16.4-14.6-32.5-29.5-48.8-44.2c-5.4-4.9-11-9.7-16.5-14.6c-0.2,0.2-0.4,0.4-0.6,0.5
			C377.9,362,403.8,432.7,429.6,503.3z M524.4,760.8c22.5-33.3,44.2-65.4,66.4-98.2c-28.6,2.5-56,5-83.6,7.4
			C512.9,700.3,518.5,729.8,524.4,760.8z M168.4,691.9c0.3,0.1,0.6,0.2,0.9,0.2c32.2-93.1,64.4-186.3,96.6-279.4
			c-1.4,0.7-2.1,1.7-2.6,2.7c-8.7,19.1-17.3,38.2-26,57.3c-12.6,27.7-25.3,55.4-37.7,83.2c-3.3,7.4-7.3,14.8-9,22.6
			c-5.3,24.1-9.6,48.3-14.3,72.5C173.6,664.7,171,678.3,168.4,691.9z M393.8,686.2c39,23.6,77.1,46.6,115.1,69.6
			c0.1-1.5-0.3-2.2-0.8-2.8c-20.5-24.9-40.9-49.9-61.5-74.7c-1-1.2-3.4-2.1-4.9-1.8c-10.1,1.8-20.2,3.8-30.3,5.9
			C405.8,683.5,400.4,684.7,393.8,686.2z M502.1,670.5c-17.3,1.5-33.9,3-51.6,4.6c22.7,27.6,44.8,54.5,66.8,81.3
			c0.3-0.2,0.6-0.3,1-0.5C512.9,727.6,507.6,699.3,502.1,670.5z"/>
		<path d="M724.8,645.8c-94.2,8.3-187.3,16.6-280.8,24.9c-5.7-114-11.3-227.6-17-342.8C526.7,434.3,625.4,539.7,724.8,645.8z"/>
		<path d="M161.5,730c43-124.4,85.6-247.6,128.2-370.8c0.4-0.1,0.9-0.3,1.3-0.4c49,104.1,97.9,208.2,147.1,312.8
			C345.9,691,254.3,710.4,161.5,730z"/>
		<path d="M472.5,262.5c93.9,8.7,187.8,17.5,282.4,26.3c-8.7,61.8-17.3,123.4-26.1,186.1c-85.9-70.8-171.2-141.1-256.5-211.4
			C472.4,263.2,472.5,262.9,472.5,262.5z"/>
		<path d="M439,331.8c17.1,8.9,34.3,17.7,51.4,26.6c38.6,19.9,77.2,39.8,115.8,59.8c39.8,20.5,79.6,41.1,119.3,61.8
			c1.3,0.7,2.6,3,2.6,4.5c0,50.8-0.2,101.5-0.4,152.3c0,1.1-0.2,2.2-0.5,4.3c-96.8-103.3-192.9-206-289.1-308.6
			C438.4,332.2,438.7,332,439,331.8z"/>
		<path d="M467.4,265.9c79.7,65.7,159.1,131.1,238.4,196.6c-0.2,0.3-0.5,0.7-0.7,1c-10.1-5.2-20.3-10.4-30.4-15.7
			c-32.1-16.6-64.2-33.1-96.3-49.7c-32.5-16.8-65.1-33.6-97.5-50.5c-1.4-0.7-2.8-2.5-3-3.9c-3.8-25.2-7.3-50.4-10.9-75.6
			C466.9,267.7,467.2,267,467.4,265.9z"/>
		<path d="M302.7,370.3c7.5,8.9,15,17.7,22.5,26.6c29.4,35.1,58.7,70.2,88,105.3c5.5,6.6,11.2,13.2,16.6,20c1.1,1.3,1.8,3.2,1.9,4.9
			c1.6,30.6,3.1,61.1,4.6,91.7c0.5,10.8,1.1,21.6,1.7,32.4c0.1,2.4,0.1,4.8-0.5,7.4c-45.1-95.9-90.2-191.8-135.3-287.7
			C302.4,370.6,302.5,370.5,302.7,370.3z"/>
		<path d="M424.5,507.6c-12.8-15.3-25.7-30.5-38.5-45.8c-26.3-31.4-52.5-62.9-78.8-94.2c-2.5-3-2.7-5.2-0.8-8.7
			c11.8-21.6,23.3-43.4,34.9-65.1c1.1-2,2.3-4,3.8-6.7c27,73.8,53.8,146.9,80.5,219.9C425.2,507.2,424.8,507.4,424.5,507.6z"/>
		<path d="M429.6,503.3c-25.9-70.7-51.8-141.3-77.6-212c0.2-0.2,0.4-0.4,0.6-0.5c5.5,4.9,11.1,9.7,16.5,14.6
			c16.3,14.7,32.4,29.6,48.8,44.2c3.7,3.3,5.5,6.6,5.7,11.7c2.1,45.9,4.4,91.7,6.7,137.5c0.1,1.4,0,2.9,0,4.3
			C430.2,503.2,429.9,503.3,429.6,503.3z"/>
		<path d="M524.4,760.8c-5.9-30.9-11.5-60.5-17.2-90.7c27.7-2.5,55.1-4.9,83.6-7.4C568.6,695.4,546.9,727.5,524.4,760.8z"/>
		<path d="M168.4,691.9c2.6-13.6,5.3-27.2,7.9-40.9c4.7-24.2,9-48.4,14.3-72.5c1.7-7.8,5.7-15.2,9-22.6
			c12.5-27.8,25.2-55.5,37.7-83.2c8.7-19.1,17.3-38.2,26-57.3c0.5-1,1.1-2,2.6-2.7c-32.2,93.1-64.4,186.3-96.6,279.4
			C169,692.1,168.7,692,168.4,691.9z"/>
		<path d="M393.8,686.2c6.6-1.4,12-2.7,17.5-3.8c10.1-2,20.2-4.1,30.3-5.9c1.5-0.3,3.9,0.6,4.9,1.8c20.6,24.8,41.1,49.7,61.5,74.7
			c0.5,0.6,0.9,1.4,0.8,2.8C470.9,732.8,432.8,709.8,393.8,686.2z"/>
		<path d="M502.1,670.5c5.5,28.8,10.8,57.1,16.2,85.4c-0.3,0.2-0.6,0.3-1,0.5c-22.1-26.8-44.1-53.7-66.8-81.3
			C468.2,673.5,484.8,672,502.1,670.5z"/>
	</g>
</g>
</svg>
