<?xml version="1.0" encoding="utf-8"?>
<!-- Generator: Adobe Illustrator 21.1.0, SVG Export Plug-In . SVG Version: 6.00 Build 0)  -->
<svg version="1.1" id="Calque_1" xmlns="http://www.w3.org/2000/svg" xmlns:xlink="http://www.w3.org/1999/xlink" x="0px" y="0px"
	 viewBox="0 0 100 100" style="enable-background:new 0 0 100 100;" xml:space="preserve">
<style type="text/css">
	.st0{fill:#FFFFFF;}
</style>
<g>
	<g>
		<path class="st0" d="M84.3,70.6c-13.2-1.1-26.2-2.1-39.4-3.2c1.9-15.9,3.8-31.7,5.7-47.8C61.9,36.7,73,53.6,84.3,70.6z"/>
		<path class="st0" d="M44.8,67.5l5.8-48.1l33.9,51.3L44.8,67.5z M50.7,19.9L45,67.4l39.1,3.2L50.7,19.9z"/>
	</g>
	<g>
		<path class="st0" d="M44,67.4c-13.2,0.5-26.3,1-39.6,1.5L31,20.5L44,67.4z"/>
		<path class="st0" d="M4.3,69.1l0.1-0.1l26.7-48.7l13.1,47.2L4.3,69.1z M31,20.7L4.6,68.9l39.3-1.5L31,20.7z"/>
	</g>
	<g>
		<path class="st0" d="M96.9,22c-2.7,8.4-5.3,16.6-8,25.1C78.7,35.3,68.6,23.6,58.5,11.9c0-0.1,0-0.1,0.1-0.1
			C71.3,15.1,84.1,18.6,96.9,22z"/>
		<path class="st0" d="M88.9,47.3l-0.1-0.1L58.3,11.9l0.2-0.3l0.1,0L97,21.9l0,0.1L88.9,47.3z M58.6,11.9l30.3,35.1l7.9-24.9
			L58.6,11.9L58.6,11.9z"/>
	</g>
	<g>
		<path class="st0" d="M84.7,70C73.8,53.5,63,37.1,52.1,20.7c0,0,0.1-0.1,0.1-0.1c0.2,0.1,0.3,0.2,0.5,0.4
			c11.8,8.9,23.6,17.8,35.4,26.7c0.3,0.3,0.6,0.5,0.5,1c-1.2,7-2.5,14-3.7,21C84.8,69.6,84.8,69.7,84.7,70z"/>
		<path class="st0" d="M84.8,70.2L52,20.7l0.2-0.2l0.2,0.2c0.1,0.1,0.2,0.2,0.3,0.2l6.7,5.1c9.5,7.2,19.1,14.4,28.6,21.6
			c0.3,0.3,0.6,0.5,0.5,1.1c-1,5.4-1.9,10.8-2.8,16.1L85,69.5c0,0.1,0,0.2-0.1,0.3c0,0.1,0,0.2-0.1,0.3L84.8,70.2z M52.2,20.7
			l32.4,49.2c0,0,0-0.1,0-0.1c0-0.1,0.1-0.2,0.1-0.3l0.9-4.9c0.9-5.3,1.9-10.7,2.8-16.1c0.1-0.5-0.1-0.7-0.4-0.9
			C78.5,40.4,68.9,33.2,59.4,26L52.7,21C52.6,20.9,52.4,20.8,52.2,20.7L52.2,20.7L52.2,20.7z"/>
	</g>
	<g>
		<path class="st0" d="M85.9,44.9c-0.2-0.2-0.5-0.3-0.7-0.5C76.1,37.6,67,30.8,57.9,23.9c-0.5-0.4-0.7-0.7-0.7-1.3
			c0.1-3.5,0.2-6.9,0.3-10.7c9.6,11.1,19,22,28.4,32.9C85.9,44.9,85.9,44.9,85.9,44.9z"/>
		<path class="st0" d="M85.9,45.1L85.9,45.1c-0.1-0.1-0.2-0.1-0.3-0.2c-0.2-0.1-0.3-0.2-0.5-0.3l-6.4-4.8
			C71.9,34.6,64.8,29.2,57.9,24c-0.5-0.4-0.7-0.8-0.7-1.4c0.1-2.6,0.2-5.1,0.2-7.8c0-0.9,0-1.9,0.1-2.9l0-0.2l28.6,33.1L85.9,45.1z
			 M57.7,12.2c0,0.9,0,1.8-0.1,2.6c-0.1,2.7-0.1,5.3-0.2,7.8c0,0.6,0.1,0.9,0.6,1.2c7,5.2,14,10.6,20.9,15.7l6.4,4.8
			c0.2,0.1,0.3,0.2,0.5,0.3c0.1,0,0.1,0.1,0.2,0.1l0,0L57.7,12.2z"/>
	</g>
	<g>
		<path class="st0" d="M44.3,65.6c-4-14.3-7.9-28.6-11.9-42.9c0.1,0,0.1-0.1,0.2-0.1c0.1,0.2,0.2,0.4,0.3,0.5
			c4.5,7.7,9,15.4,13.4,23.1c0.2,0.4,0.4,0.9,0.3,1.3c-0.7,5.9-1.4,11.9-2.1,17.8C44.4,65.4,44.4,65.5,44.3,65.6z"/>
		<path class="st0" d="M44.2,65.8l-12-43.1l0.3-0.2l0,0.1c0,0.1,0.1,0.1,0.1,0.2c0.1,0.1,0.1,0.2,0.2,0.4l2.7,4.7
			c3.5,6,7.1,12.2,10.7,18.4c0.3,0.4,0.4,1,0.3,1.4c-0.6,5.1-1.2,10.3-1.8,15.3l-0.3,2.6c0,0.1,0,0.1-0.1,0.1c0,0-0.1,0.1-0.1,0.1
			L44.2,65.8z M32.5,22.8l11.8,42.7c0,0,0,0,0,0l0.3-2.6c0.6-5,1.2-10.2,1.8-15.3c0-0.4-0.1-0.9-0.3-1.3
			c-3.5-6.1-7.2-12.3-10.7-18.4l-2.7-4.7C32.7,23.1,32.6,23,32.5,22.8C32.5,22.8,32.5,22.8,32.5,22.8L32.5,22.8z"/>
	</g>
	<g>
		<path class="st0" d="M40.4,12.3c2,10.9,4,21.6,6,32.6c-0.2-0.3-0.3-0.4-0.4-0.6c-4.2-7.2-8.4-14.4-12.6-21.7
			C33,22,33,21.6,33.7,20.9C35.2,19.4,39.4,13.5,40.4,12.3z"/>
		<path class="st0" d="M46.6,45.2l-0.2-0.3c-0.1-0.1-0.1-0.2-0.2-0.3c-0.1-0.1-0.2-0.2-0.2-0.3c-1.1-1.9-2.2-3.8-3.3-5.7
			c-3-5.2-6.2-10.6-9.3-15.9c-0.4-0.7-0.3-1.2,0.4-1.9c1-1,3.4-4.2,5.1-6.5c0.7-1,1.3-1.8,1.6-2.1l0.1-0.2L46.6,45.2z M40.4,12.5
			c-0.3,0.4-0.8,1.1-1.5,2c-1.7,2.3-4.1,5.4-5.1,6.5c-0.7,0.7-0.7,1.1-0.3,1.7c3.1,5.3,6.3,10.7,9.3,15.9c1.1,1.9,2.2,3.8,3.3,5.7
			c0,0.1,0.1,0.1,0.2,0.3L40.4,12.5z"/>
	</g>
	<g>
		<path class="st0" d="M41.3,12.8c0.2,0.2,0.3,0.3,0.5,0.5c2.5,3.1,4.9,6.2,7.3,9.4c0.2,0.3,0.4,0.7,0.4,1
			c-0.8,6.6-1.6,13.2-2.4,19.8c0,0.1,0,0.3-0.2,0.4c-1.9-10.3-3.8-20.7-5.7-31C41.2,12.9,41.2,12.8,41.3,12.8z"/>
		<path class="st0" d="M46.8,44L41,12.8l0.3-0.1l0,0c0,0.1,0.1,0.1,0.1,0.2c0.1,0.1,0.2,0.2,0.3,0.4l1.2,1.5c2,2.6,4.1,5.2,6.2,7.9
			c0.2,0.3,0.4,0.7,0.4,1.1c-0.7,5.7-1.4,11.4-2,17l-0.3,2.7c0,0.1-0.1,0.3-0.3,0.5L46.8,44z M41.2,12.9l5.6,30.7
			c0.1-0.1,0.1-0.2,0.1-0.2l0.3-2.7c0.7-5.6,1.4-11.3,2-17c0-0.3-0.1-0.7-0.3-0.9c-2-2.6-4.1-5.3-6.2-7.9l-1.2-1.5
			c-0.1-0.1-0.2-0.2-0.3-0.4C41.3,13,41.3,13,41.2,12.9z"/>
	</g>
	<g>
		<path class="st0" d="M53.9,81.8c-0.1-4.4-0.1-8.7-0.2-13c3.9,0.3,7.7,0.6,11.7,1C61.5,73.8,57.8,77.7,53.9,81.8z"/>
		<path class="st0" d="M53.8,82l-0.2-13.3l12,1L53.8,82z M53.7,69l0.2,12.6l11.2-11.7L53.7,69z"/>
	</g>
	<g>
		<path class="st0" d="M6.3,63.8c0.8-2.2,1.7-4.5,2.5-6.7c0.8-2,1.6-4.1,2.3-6.1c0.6-1.8,1.6-3.6,2.7-5.2c4-5.9,8-11.7,11.9-17.6
			c0.2-0.3,0.4-0.5,0.7-0.7l-20,36.4C6.3,63.8,6.4,63.8,6.3,63.8z"/>
		<path class="st0" d="M6.5,64l-0.3-0.1L7,61.7c0.6-1.5,1.2-3.1,1.8-4.6c0.3-0.7,0.5-1.4,0.8-2c0.5-1.3,1.1-2.7,1.5-4.1
			c0.6-1.8,1.5-3.5,2.7-5.2c2.9-4.2,5.8-8.5,8.6-12.6c1.1-1.7,2.2-3.3,3.4-5c0.2-0.3,0.4-0.5,0.7-0.7l0.3-0.2L6.5,64z M26.1,27.9
			c-0.1,0.1-0.2,0.2-0.3,0.4c-1.1,1.7-2.2,3.3-3.4,5c-2.8,4.2-5.7,8.4-8.6,12.6c-1.1,1.7-2,3.4-2.7,5.2c-0.5,1.4-1,2.7-1.5,4.1
			c-0.3,0.7-0.5,1.4-0.8,2c-0.6,1.5-1.2,3.1-1.8,4.6l-0.7,1.8L26.1,27.9z"/>
	</g>
	<g>
		<path class="st0" d="M51.8,80.7c-4.7-4.1-9.4-8.1-14.3-12.3c1.9-0.1,3.6,0,5.3-0.2c1.5-0.2,2.3,0.4,3,1.7
			c1.8,3.5,3.8,6.8,5.8,10.2c0.1,0.2,0.2,0.4,0.3,0.6C51.9,80.7,51.9,80.7,51.8,80.7z"/>
		<path class="st0" d="M51.8,80.8L37.3,68.3l0.2,0c0.6,0,1.2,0,1.7,0c1.2,0,2.4,0,3.6-0.2c1.7-0.2,2.4,0.5,3.1,1.7
			c1.3,2.5,2.7,4.9,4.1,7.3c0.6,1,1.1,2,1.7,2.9c0.1,0.1,0.2,0.3,0.2,0.4l0.1,0.3L51.8,80.8z M37.8,68.5l14,12.1l0-0.1
			c-0.1-0.1-0.1-0.3-0.2-0.4c-0.6-1-1.1-2-1.7-2.9c-1.4-2.4-2.8-4.8-4.1-7.3c-0.7-1.4-1.5-1.8-2.9-1.6c-1.2,0.2-2.4,0.2-3.6,0.2
			C38.8,68.5,38.3,68.5,37.8,68.5z"/>
	</g>
	<g>
		<path class="st0" d="M53,81c-2.4-4.2-4.8-8.4-7.3-12.8c2.5,0.2,4.8,0.4,7.2,0.6c0.1,4.1,0.1,8.1,0.2,12.1C53,81,53.1,81,53,81z"/>
		<path class="st0" d="M52.9,81.1l-7.4-13l7.5,0.6L53.2,81L52.9,81.1z M45.8,68.3L53,80.9l0,0l-0.2-12L45.8,68.3z"/>
	</g>
</g>
<rect x="128.1" y="9.6" style="fill:none;" width="40.9" height="3.4"/>
<text transform="matrix(1 0 0 1 128.125 12.5449)" style="fill:#4C5667; font-family:'Raleway-Light'; font-size:4px;">Floriane Erceau</text>
</svg>
